<?xml version="1.0" encoding="UTF-8"?>
<svg xmlns="http://www.w3.org/2000/svg" viewBox="0 0 980 600" width="980" height="600" font-family="Arial, Helvetica, sans-serif">
  <defs>
    <marker id="arr" viewBox="0 0 10 10" refX="9" refY="5" markerWidth="5" markerHeight="5" orient="auto">
      <path d="M0,0 L10,5 L0,10 z" fill="#94a3b8"/>
    </marker>
    <marker id="arr-green" viewBox="0 0 10 10" refX="9" refY="5" markerWidth="5" markerHeight="5" orient="auto">
      <path d="M0,0 L10,5 L0,10 z" fill="#10b981"/>
    </marker>
    <filter id="card-shadow" x="-5%" y="-5%" width="110%" height="120%">
      <feDropShadow dx="0" dy="2" stdDeviation="3" flood-color="#0f172a" flood-opacity="0.07"/>
    </filter>
    <linearGradient id="headerGrad" x1="0" y1="0" x2="1" y2="0">
      <stop offset="0%" stop-color="#0f172a"/>
      <stop offset="60%" stop-color="#1e293b"/>
      <stop offset="100%" stop-color="#1e1b4b"/>
    </linearGradient>
    <linearGradient id="psGrad" x1="0" y1="0" x2="1" y2="1">
      <stop offset="0%" stop-color="#6366f1"/>
      <stop offset="100%" stop-color="#8b5cf6"/>
    </linearGradient>
  </defs>

  <!-- ══════════════════════════════════════════════════════ -->
  <!-- BACKGROUND                                              -->
  <!-- ══════════════════════════════════════════════════════ -->
  <rect width="980" height="600" fill="#f1f5f9"/>

  <!-- ══════════════════════════════════════════════════════ -->
  <!-- HEADER BAR                                              -->
  <!-- ══════════════════════════════════════════════════════ -->
  <rect x="0" y="0" width="980" height="58" fill="url(#headerGrad)"/>
  <rect x="0" y="54" width="980" height="4" fill="#6366f1"/>
  <!-- PS Logo badge -->
  <rect x="18" y="11" width="36" height="36" rx="9" fill="url(#psGrad)" filter="url(#card-shadow)"/>
  <text x="36" y="35" text-anchor="middle" fill="white" font-size="11" font-weight="bold">PS</text>
  <!-- Header text -->
  <text x="66" y="31" fill="white" font-size="17" font-weight="bold" letter-spacing="-0.3">Product Strategy Assistant</text>
  <text x="66" y="48" fill="#94a3b8" font-size="10.5">Multi-Agent AI Architecture  ·  FastAPI  ·  React  ·  LangGraph  ·  ChromaDB</text>

  <!-- ══════════════════════════════════════════════════════ -->
  <!-- COLUMN 1: REACT FRONTEND  (x=15, w=162)               -->
  <!-- ══════════════════════════════════════════════════════ -->
  <rect x="15" y="70" width="162" height="390" rx="12" fill="white" stroke="#bfdbfe" stroke-width="1.5" filter="url(#card-shadow)"/>
  <!-- Section header -->
  <rect x="15" y="70" width="162" height="40" rx="12" fill="#2563eb"/>
  <rect x="15" y="95"  width="162" height="15" fill="#2563eb"/>
  <text x="96" y="90"  text-anchor="middle" fill="white"   font-size="11.5" font-weight="bold">React Frontend</text>
  <text x="96" y="104" text-anchor="middle" fill="#bfdbfe" font-size="8.5">Vite · Port 3000</text>

  <!-- Upload -->
  <rect x="28" y="124" width="136" height="42" rx="7" fill="#eff6ff" stroke="#bfdbfe" stroke-width="1"/>
  <text x="96" y="141" text-anchor="middle" fill="#1e40af" font-size="9.5" font-weight="bold">Upload Documents</text>
  <text x="96" y="155" text-anchor="middle" fill="#64748b" font-size="8">TXT · PDF · CSV · JSON</text>

  <!-- Results -->
  <rect x="28" y="176" width="136" height="42" rx="7" fill="#eff6ff" stroke="#bfdbfe" stroke-width="1"/>
  <text x="96" y="193" text-anchor="middle" fill="#1e40af" font-size="9.5" font-weight="bold">Results Dashboard</text>
  <text x="96" y="207" text-anchor="middle" fill="#64748b" font-size="8">5 analysis sections</text>

  <!-- Chat -->
  <rect x="28" y="228" width="136" height="42" rx="7" fill="#eff6ff" stroke="#bfdbfe" stroke-width="1"/>
  <text x="96" y="245" text-anchor="middle" fill="#1e40af" font-size="9.5" font-weight="bold">Chat Interface</text>
  <text x="96" y="259" text-anchor="middle" fill="#64748b" font-size="8">ReactMarkdown · History</text>

  <!-- Report -->
  <rect x="28" y="280" width="136" height="42" rx="7" fill="#eff6ff" stroke="#bfdbfe" stroke-width="1"/>
  <text x="96" y="297" text-anchor="middle" fill="#1e40af" font-size="9.5" font-weight="bold">PDF Download</text>
  <text x="96" y="311" text-anchor="middle" fill="#64748b" font-size="8">ReportLab · Styled tables</text>

  <!-- env var -->
  <rect x="28" y="390" width="136" height="28" rx="6" fill="#f8fafc" stroke="#e2e8f0" stroke-width="1"/>
  <text x="96" y="402" text-anchor="middle" fill="#94a3b8" font-size="7.5">VITE_BACKEND_URL</text>
  <text x="96" y="413" text-anchor="middle" fill="#6366f1" font-size="8" font-weight="bold">localhost:8000</text>

  <!-- ══════════════════════════════════════════════════════ -->
  <!-- ARROW: Frontend → Backend                              -->
  <!-- ══════════════════════════════════════════════════════ -->
  <line x1="177" y1="265" x2="196" y2="265" stroke="#94a3b8" stroke-width="1.5" marker-end="url(#arr)"/>
  <rect x="177" y="253" width="18" height="11" rx="2" fill="#f1f5f9"/>
  <text x="186" y="262" text-anchor="middle" fill="#64748b" font-size="7.5">REST</text>

  <!-- ══════════════════════════════════════════════════════ -->
  <!-- COLUMN 2: FASTAPI BACKEND  (x=196, w=272)             -->
  <!-- ══════════════════════════════════════════════════════ -->
  <rect x="196" y="70" width="272" height="390" rx="12" fill="white" stroke="#c7d2fe" stroke-width="1.5" filter="url(#card-shadow)"/>
  <rect x="196" y="70"  width="272" height="40" rx="12" fill="#6366f1"/>
  <rect x="196" y="95"  width="272" height="15" fill="#6366f1"/>
  <text x="332" y="90"  text-anchor="middle" fill="white"   font-size="11.5" font-weight="bold">FastAPI Backend</text>
  <text x="332" y="104" text-anchor="middle" fill="#c7d2fe" font-size="8.5">Python · Uvicorn · Port 8000</text>

  <!-- API routes box -->
  <rect x="210" y="122" width="244" height="130" rx="8" fill="#f8fafc" stroke="#e2e8f0" stroke-width="1"/>
  <text x="332" y="138" text-anchor="middle" fill="#0f172a" font-size="9.5" font-weight="bold">REST API Endpoints</text>
  <rect x="210" y="143" width="244" height="1" fill="#e2e8f0"/>

  <rect x="218" y="150" width="34" height="13" rx="3" fill="#eef2ff"/>
  <text x="235" y="161" text-anchor="middle" fill="#6366f1" font-size="8" font-weight="bold">POST</text>
  <text x="258" y="161" fill="#334155" font-size="8.5">/upload</text>

  <rect x="218" y="167" width="34" height="13" rx="3" fill="#eef2ff"/>
  <text x="235" y="178" text-anchor="middle" fill="#6366f1" font-size="8" font-weight="bold">POST</text>
  <text x="258" y="178" fill="#334155" font-size="8.5">/analyze</text>

  <rect x="218" y="184" width="28" height="13" rx="3" fill="#ecfdf5"/>
  <text x="232" y="195" text-anchor="middle" fill="#059669" font-size="8" font-weight="bold">GET</text>
  <text x="251" y="195" fill="#334155" font-size="8.5">/results</text>

  <rect x="218" y="201" width="34" height="13" rx="3" fill="#eef2ff"/>
  <text x="235" y="212" text-anchor="middle" fill="#6366f1" font-size="8" font-weight="bold">POST</text>
  <text x="258" y="212" fill="#334155" font-size="8.5">/chat</text>

  <rect x="218" y="218" width="28" height="13" rx="3" fill="#ecfdf5"/>
  <text x="232" y="229" text-anchor="middle" fill="#059669" font-size="8" font-weight="bold">GET</text>
  <text x="251" y="229" fill="#334155" font-size="8.5">/report/pdf</text>

  <rect x="218" y="235" width="40" height="13" rx="3" fill="#fef2f2"/>
  <text x="238" y="246" text-anchor="middle" fill="#dc2626" font-size="8" font-weight="bold">DELETE</text>
  <text x="264" y="246" fill="#334155" font-size="8.5">/reset</text>

  <!-- ChromaDB -->
  <rect x="210" y="265" width="116" height="64" rx="8" fill="#fffbeb" stroke="#fde68a" stroke-width="1.2"/>
  <text x="268" y="284" text-anchor="middle" fill="#92400e" font-size="9.5" font-weight="bold">ChromaDB</text>
  <text x="268" y="298" text-anchor="middle" fill="#b45309" font-size="8">Vector Store</text>
  <text x="268" y="312" text-anchor="middle" fill="#b45309" font-size="8">Semantic Search</text>

  <!-- Chat Agent -->
  <rect x="337" y="265" width="117" height="64" rx="8" fill="#f0fdf4" stroke="#86efac" stroke-width="1.2"/>
  <text x="395" y="284" text-anchor="middle" fill="#166534" font-size="9.5" font-weight="bold">Chat Agent</text>
  <text x="395" y="298" text-anchor="middle" fill="#16a34a" font-size="8">Conversation history</text>
  <text x="395" y="312" text-anchor="middle" fill="#16a34a" font-size="8">Context retrieval</text>

  <!-- PDF Generator -->
  <rect x="210" y="342" width="244" height="50" rx="8" fill="#faf5ff" stroke="#d8b4fe" stroke-width="1.2"/>
  <text x="332" y="362" text-anchor="middle" fill="#7e22ce" font-size="9.5" font-weight="bold">PDF Generator</text>
  <text x="332" y="378" text-anchor="middle" fill="#9333ea" font-size="8">ReportLab · Markdown parser · Styled tables</text>

  <!-- LangGraph label -->
  <rect x="210" y="404" width="244" height="24" rx="6" fill="#f8fafc" stroke="#e2e8f0"/>
  <text x="332" y="420" text-anchor="middle" fill="#6366f1" font-size="8.5" font-weight="bold">LangGraph · StateGraph orchestration</text>

  <!-- ══════════════════════════════════════════════════════ -->
  <!-- ARROW: Backend → Pipeline                              -->
  <!-- ══════════════════════════════════════════════════════ -->
  <line x1="468" y1="225" x2="487" y2="225" stroke="#94a3b8" stroke-width="1.5" marker-end="url(#arr)"/>
  <rect x="464" y="213" width="28" height="11" rx="2" fill="#f1f5f9"/>
  <text x="478" y="222" text-anchor="middle" fill="#64748b" font-size="7.5">invoke</text>

  <!-- ══════════════════════════════════════════════════════ -->
  <!-- COLUMN 3: AGENT PIPELINE  (x=488, w=476)              -->
  <!-- ══════════════════════════════════════════════════════ -->
  <rect x="488" y="70" width="476" height="390" rx="12" fill="white" stroke="#ddd6fe" stroke-width="1.5" filter="url(#card-shadow)"/>
  <rect x="488" y="70"  width="476" height="40" rx="12" fill="#7c3aed"/>
  <rect x="488" y="95"  width="476" height="15" fill="#7c3aed"/>
  <text x="726" y="90"  text-anchor="middle" fill="white"   font-size="11.5" font-weight="bold">LangGraph Agent Pipeline</text>
  <text x="726" y="104" text-anchor="middle" fill="#ddd6fe" font-size="8.5">Sequential · Stateful · gpt-4o-mini</text>

  <!-- Agent 1: Customer Feedback -->
  <rect x="502" y="122" width="448" height="48" rx="8" fill="white" stroke="#fde68a" stroke-width="1.5" filter="url(#card-shadow)"/>
  <rect x="502" y="122" width="5"   height="48" rx="2.5" fill="#f59e0b"/>
  <text x="520" y="142" fill="#92400e" font-size="10"  font-weight="bold">01  Customer Feedback Agent</text>
  <text x="520" y="158" fill="#64748b" font-size="8.5">Pain points · Satisfaction drivers · Feature requests · Sentiment trends</text>

  <!-- Arrow down -->
  <line x1="726" y1="170" x2="726" y2="183" stroke="#94a3b8" stroke-width="1.5" marker-end="url(#arr)"/>

  <!-- Agent 2: Market & Competitor -->
  <rect x="502" y="184" width="448" height="48" rx="8" fill="white" stroke="#bfdbfe" stroke-width="1.5" filter="url(#card-shadow)"/>
  <rect x="502" y="184" width="5"   height="48" rx="2.5" fill="#3b82f6"/>
  <text x="520" y="204" fill="#1d4ed8" font-size="10"  font-weight="bold">02  Market &amp; Competitor Agent</text>
  <text x="520" y="220" fill="#64748b" font-size="8.5">Market trends · Competitive landscape · Gaps · Positioning opportunities</text>

  <line x1="726" y1="232" x2="726" y2="245" stroke="#94a3b8" stroke-width="1.5" marker-end="url(#arr)"/>

  <!-- Agent 3: Feature Prioritization -->
  <rect x="502" y="246" width="448" height="48" rx="8" fill="white" stroke="#ddd6fe" stroke-width="1.5" filter="url(#card-shadow)"/>
  <rect x="502" y="246" width="5"   height="48" rx="2.5" fill="#8b5cf6"/>
  <text x="520" y="266" fill="#5b21b6" font-size="10"  font-weight="bold">03  Feature Prioritization Agent</text>
  <text x="520" y="282" fill="#64748b" font-size="8.5">RICE scoring · Must/Should/Nice-to-Have · Q1–Q4 phased roadmap</text>

  <line x1="726" y1="294" x2="726" y2="307" stroke="#94a3b8" stroke-width="1.5" marker-end="url(#arr)"/>

  <!-- Agent 4: SWOT Analysis -->
  <rect x="502" y="308" width="448" height="48" rx="8" fill="white" stroke="#a7f3d0" stroke-width="1.5" filter="url(#card-shadow)"/>
  <rect x="502" y="308" width="5"   height="48" rx="2.5" fill="#10b981"/>
  <text x="520" y="328" fill="#065f46" font-size="10"  font-weight="bold">04  SWOT Analysis Agent</text>
  <text x="520" y="344" fill="#64748b" font-size="8.5">Strengths · Weaknesses · Opportunities · Threats · Strategic implications</text>

  <line x1="726" y1="356" x2="726" y2="369" stroke="#94a3b8" stroke-width="1.5" marker-end="url(#arr)"/>

  <!-- Agent 5: Executive Report -->
  <rect x="502" y="370" width="448" height="48" rx="8" fill="white" stroke="#c7d2fe" stroke-width="1.5" filter="url(#card-shadow)"/>
  <rect x="502" y="370" width="5"   height="48" rx="2.5" fill="#6366f1"/>
  <text x="520" y="390" fill="#3730a3" font-size="10"  font-weight="bold">05  Executive Report Agent</text>
  <text x="520" y="406" fill="#64748b" font-size="8.5">Situation overview · Strategic priorities · 30/60/90 day action plan</text>

  <!-- ══════════════════════════════════════════════════════ -->
  <!-- AI GATEWAY ROW  (y=477)                               -->
  <!-- ══════════════════════════════════════════════════════ -->
  <rect x="196" y="477" width="768" height="60" rx="12" fill="white" stroke="#a7f3d0" stroke-width="1.5" filter="url(#card-shadow)"/>
  <rect x="196" y="477" width="5"   height="60" rx="2.5" fill="#10b981"/>
  <!-- Icon -->
  <rect x="210" y="489" width="36" height="36" rx="8" fill="#ecfdf5" stroke="#a7f3d0" stroke-width="1"/>
  <text x="228" y="512" text-anchor="middle" fill="#10b981" font-size="14" font-weight="bold">AI</text>
  <!-- Text -->
  <text x="258" y="502" fill="#065f46" font-size="11.5" font-weight="bold">AI Gateway — gpt-4o-mini</text>
  <text x="258" y="519" fill="#64748b" font-size="9">keygateway.arshnivlabs.com/v1  ·  API Key: learner013  ·  OpenAI-compatible  ·  httpx (verify=False)</text>

  <!-- Arrow: Backend → AI Gateway (chat) -->
  <line x1="395" y1="460" x2="395" y2="477" stroke="#10b981" stroke-width="1.5" stroke-dasharray="4,3" marker-end="url(#arr-green)"/>
  <rect x="370" y="465" width="50" height="11" rx="3" fill="white"/>
  <text x="395" y="474" text-anchor="middle" fill="#10b981" font-size="7.5">chat/completions</text>

  <!-- Arrow: Pipeline → AI Gateway -->
  <line x1="726" y1="460" x2="726" y2="477" stroke="#10b981" stroke-width="1.5" stroke-dasharray="4,3" marker-end="url(#arr-green)"/>
  <rect x="700" y="465" width="52" height="11" rx="3" fill="white"/>
  <text x="726" y="474" text-anchor="middle" fill="#10b981" font-size="7.5">chat/completions</text>

  <!-- ══════════════════════════════════════════════════════ -->
  <!-- FOOTER                                                  -->
  <!-- ══════════════════════════════════════════════════════ -->
  <rect x="0" y="555" width="980" height="45" fill="#0f172a"/>
  <text x="490" y="577" text-anchor="middle" fill="#475569" font-size="9">
    FastAPI  ·  React 18 + Vite  ·  LangGraph  ·  ChromaDB  ·  ReportLab  ·  react-markdown  ·  Deployed on Render
  </text>

</svg>
